<svg xmlns="http://www.w3.org/2000/svg" width="153.7" height="41.285" viewBox="0 0 153.7 41.285"><defs><style>.a{fill:#0082be;}</style></defs><g transform="translate(0.3 -9.7)"><path class="a" d="M-.3,14.562a2.288,2.288,0,0,1,.307-1.024,6.54,6.54,0,0,1,.717-1.075,7.194,7.194,0,0,1,.921-.87,1.436,1.436,0,0,1,.972-.358,1.874,1.874,0,0,1,1.28.614c.461.409.819.768,1.126,1.075a15.111,15.111,0,0,1,1.638,2.047c.461.717.921,1.433,1.382,2.2a63,63,0,0,1,5.425,11.414,88.937,88.937,0,0,1,3.48,12.13,15.112,15.112,0,0,1,1.228-2.969c.512-.972,1.024-1.894,1.587-2.866.972-1.843,2-3.634,3.02-5.425l3.071-5.374c1.126-2,2.3-4.043,3.48-6.091Q31.1,14.844,33.02,12l.409-.665.563-.768.614-.614.665-.256a1.837,1.837,0,0,1,1.228.512,1.509,1.509,0,0,1,.563,1.126l-.2.563-.358.461a31.583,31.583,0,0,0-2.969,4.4l-2.61,4.606c-1.638,2.815-3.276,5.681-4.811,8.547-1.587,2.866-3.122,5.732-4.658,8.6-.307.563-.665,1.228-1.024,1.894-.409.665-.768,1.382-1.126,2.1l-1.075,2.15a13.158,13.158,0,0,0-.717,1.945,8.574,8.574,0,0,0-.307,1.382A3.27,3.27,0,0,1,16.9,49.11a2.052,2.052,0,0,1-.717.768,2.877,2.877,0,0,1-1.535.307,1.251,1.251,0,0,1-1.024-.358,1.653,1.653,0,0,1-.512-.87,7.946,7.946,0,0,1-.2-1.075,3.078,3.078,0,0,0-.154-1.024,66.644,66.644,0,0,0-3.378-12.9A111.691,111.691,0,0,0,4.1,21.625c-.461-.87-.921-1.791-1.433-2.713A14.574,14.574,0,0,0,.928,16.4c-.2-.2-.461-.461-.768-.819A2.089,2.089,0,0,1-.3,14.562" transform="translate(0 0)"/><path class="a" d="M74,54.265a7.159,7.159,0,0,0,.256,1.74,4.319,4.319,0,0,0,.614,1.484A1.284,1.284,0,0,0,76,58.1,4.208,4.208,0,0,0,78.5,57.029a20.164,20.164,0,0,0,2.661-2.508,32.061,32.061,0,0,0,2.354-3.02c.717-1.024,1.228-1.843,1.638-2.457.2-.256.409-.563.665-.921a1.085,1.085,0,0,1,.921-.512c.409,0,.614.154.665.409a4.508,4.508,0,0,1,.1.87l-.154.665-.409.819-.512.819-.409.614c-.512.768-1.228,1.689-2.047,2.713a30.66,30.66,0,0,1-2.764,3.02A19.308,19.308,0,0,1,78.094,60a5.959,5.959,0,0,1-3.173,1.024,3.546,3.546,0,0,1-2.713-1.075,8.64,8.64,0,0,1-1.587-2.559,16.472,16.472,0,0,1-.768-3.224c-.1-1.126-.154-2.1-.154-2.969a18.835,18.835,0,0,1,.358-3.583,35.357,35.357,0,0,1,.819-3.48,8,8,0,0,1,1.433-2.61,3.33,3.33,0,0,1,2.713-1.075c.87,0,1.331.409,1.331,1.28a4.685,4.685,0,0,1-.2,1.331c-.154.512-.307,1.075-.512,1.587-.2.563-.358,1.126-.563,1.689a11.908,11.908,0,0,0-.461,1.484,23.785,23.785,0,0,0-.512,5.118,4.809,4.809,0,0,0-.1,1.331m3.736-21.957a2.468,2.468,0,0,1,.563,1.535,3.022,3.022,0,0,1-.819,2.1,2.5,2.5,0,0,1-1.945.972,1.681,1.681,0,0,1-1.433-.665,2.415,2.415,0,0,1-.512-1.535,3.188,3.188,0,0,1,.768-2.047,2.353,2.353,0,0,1,1.945-.972,1.7,1.7,0,0,1,1.433.614" transform="translate(-34.172 -10.734)"/><path class="a" d="M97.39,46.135a2.112,2.112,0,0,1,1.484-.768,1.575,1.575,0,0,1,.972.307l.768.665a16.57,16.57,0,0,1,2.15,2.917,34.28,34.28,0,0,1,1.791,3.634c.563,1.28,1.024,2.508,1.484,3.787a30.579,30.579,0,0,1,.972,3.48c1.331-2.406,2.661-4.862,3.992-7.268a68.29,68.29,0,0,1,4.4-7.114l.614-.768a1.018,1.018,0,0,1,.87-.409,2.061,2.061,0,0,1,1.024.358,1.108,1.108,0,0,1,.512.972l-.154.461-.256.358a21.869,21.869,0,0,0-1.382,2.047c-.614.972-1.28,2.1-2.047,3.327s-1.535,2.559-2.354,3.941-1.535,2.713-2.252,3.941c-.665,1.228-1.28,2.354-1.74,3.276a8.044,8.044,0,0,0-.819,2,8.858,8.858,0,0,1-.409,1.382c-.154.358-.614.563-1.28.563-.768,0-1.228-.2-1.331-.614a8.55,8.55,0,0,1-.358-1.535,37.454,37.454,0,0,0-.87-3.839c-.461-1.535-.972-3.071-1.587-4.658s-1.28-3.071-1.945-4.453a15.185,15.185,0,0,0-2.047-3.276l-.512-.563-.307-.665a1.565,1.565,0,0,1,.614-1.484" transform="translate(-47.378 -17.037)"/><path class="a" d="M145.68,64.339a5.994,5.994,0,0,1-2-1.74,7.713,7.713,0,0,1-1.126-2.457,13.864,13.864,0,0,1-.358-2.969,20.272,20.272,0,0,1,.717-4.709,26.356,26.356,0,0,1,2.15-5.323,17.648,17.648,0,0,1,3.276-4.35,6.081,6.081,0,0,1,4.2-1.791,2.984,2.984,0,0,1,2.406.972,3.656,3.656,0,0,1,.819,2.457,7.246,7.246,0,0,1-.87,3.173,17.648,17.648,0,0,1-2.252,3.378,22.444,22.444,0,0,1-2.917,2.917,10.46,10.46,0,0,1-2.866,1.74,10.677,10.677,0,0,0-.307,2.406,4.977,4.977,0,0,0,.87,3.071,3.331,3.331,0,0,0,2.866,1.126,8.571,8.571,0,0,0,3.429-.717,11.965,11.965,0,0,0,2.969-1.843,16.964,16.964,0,0,0,2.508-2.559,24.222,24.222,0,0,0,2-2.866c.2-.307.409-.614.665-.972a1.2,1.2,0,0,1,1.024-.512l.563.154.256.461a4.176,4.176,0,0,1-.1.921,3.017,3.017,0,0,1-.409.819,22.716,22.716,0,0,1-2.661,3.736,22.331,22.331,0,0,1-3.48,3.122,17.2,17.2,0,0,1-4.095,2.1,13.435,13.435,0,0,1-4.5.768,4.286,4.286,0,0,1-2.764-.512m4.965-19.347a16.771,16.771,0,0,0-1.587,2.866,28.845,28.845,0,0,0-1.28,3.276,12.556,12.556,0,0,0-.614,2.406,15,15,0,0,0,2-1.535,13.418,13.418,0,0,0,2-2.15,13.6,13.6,0,0,0,1.535-2.406,5.411,5.411,0,0,0,.614-2.406,1.682,1.682,0,0,0-.2-.87.794.794,0,0,0-.768-.461c-.563,0-1.126.409-1.689,1.28" transform="translate(-69.565 -15.28)"/><path class="a" d="M209.68,64.339a5.994,5.994,0,0,1-2-1.74,7.713,7.713,0,0,1-1.126-2.457,13.864,13.864,0,0,1-.358-2.969,20.272,20.272,0,0,1,.717-4.709,26.356,26.356,0,0,1,2.15-5.323,17.648,17.648,0,0,1,3.276-4.35,6.081,6.081,0,0,1,4.2-1.791,2.984,2.984,0,0,1,2.406.972,3.656,3.656,0,0,1,.819,2.457,7.246,7.246,0,0,1-.87,3.173,17.648,17.648,0,0,1-2.252,3.378,22.444,22.444,0,0,1-2.917,2.917,10.46,10.46,0,0,1-2.866,1.74,10.677,10.677,0,0,0-.307,2.406,4.977,4.977,0,0,0,.87,3.071,3.331,3.331,0,0,0,2.866,1.126,8.571,8.571,0,0,0,3.429-.717,11.965,11.965,0,0,0,2.969-1.843,16.964,16.964,0,0,0,2.508-2.559,24.222,24.222,0,0,0,2-2.866c.2-.307.409-.614.665-.972a1.2,1.2,0,0,1,1.024-.512l.563.154.256.461a4.176,4.176,0,0,1-.1.921,3.017,3.017,0,0,1-.409.819,22.716,22.716,0,0,1-2.661,3.736,22.331,22.331,0,0,1-3.48,3.122,17.2,17.2,0,0,1-4.095,2.1,13.435,13.435,0,0,1-4.5.768,4.286,4.286,0,0,1-2.764-.512m4.965-19.347a16.771,16.771,0,0,0-1.587,2.866,28.845,28.845,0,0,0-1.28,3.276,12.556,12.556,0,0,0-.614,2.406,15,15,0,0,0,2-1.535,13.418,13.418,0,0,0,2-2.15,13.6,13.6,0,0,0,1.535-2.406,5.411,5.411,0,0,0,.614-2.406,1.682,1.682,0,0,0-.2-.87.794.794,0,0,0-.768-.461c-.563,0-1.126.409-1.689,1.28" transform="translate(-100.809 -15.28)"/><path class="a" d="M241.707,64.412a1.729,1.729,0,0,1-.307-1.024,46.861,46.861,0,0,1,.87-8.7c.614-2.969,1.177-5.835,1.74-8.6.2-.87.358-1.791.512-2.713s.307-1.791.512-2.713a3.578,3.578,0,0,1,1.228-1.894,3.279,3.279,0,0,1,2.1-.87,1.476,1.476,0,0,1,1.331.512,2.382,2.382,0,0,1,.358,1.433,9.95,9.95,0,0,1-.512,3.122c-.307,1.075-.665,2.1-1.024,3.02a18.5,18.5,0,0,0-.972,3.276c-.2,1.126-.409,2.2-.563,3.327.409-.614,1.024-1.484,1.843-2.661.819-1.126,1.689-2.252,2.661-3.378a26.129,26.129,0,0,1,2.917-2.917,4.429,4.429,0,0,1,2.559-1.28,1.753,1.753,0,0,1,1.382.614,3.622,3.622,0,0,1,.768,1.535,11.542,11.542,0,0,1,.307,1.843c.051.614.051,1.126.051,1.535,0,1.331-.051,2.661-.1,4.043-.1,1.331-.1,2.661-.1,3.992a8.671,8.671,0,0,0,.051,1.126,3.993,3.993,0,0,0,.2,1.126,1.975,1.975,0,0,0,.563.87,1.442,1.442,0,0,0,1.075.358,3.922,3.922,0,0,0,2.3-.87,17.129,17.129,0,0,0,2.252-2.1,22.5,22.5,0,0,0,1.945-2.559,25.065,25.065,0,0,0,1.331-2.252c.154-.256.358-.563.563-.921a1,1,0,0,1,.87-.512.774.774,0,0,1,.717.358l.256.768-.154.563-.256.563a23,23,0,0,1-1.791,3.02,19.793,19.793,0,0,1-2.713,3.173,18.274,18.274,0,0,1-3.224,2.508,6.432,6.432,0,0,1-3.276,1.024,3.21,3.21,0,0,1-2.3-.768,5.16,5.16,0,0,1-1.28-1.945,7.783,7.783,0,0,1-.512-2.457c-.051-.87-.1-1.689-.1-2.406,0-1.126.051-2.2.1-3.276s.1-2.15.1-3.276a5.377,5.377,0,0,0-.1-.665c-.051-.307-.2-.461-.409-.461l-.665.358-.614.563a21.474,21.474,0,0,0-2.713,3.224c-.819,1.228-1.587,2.406-2.3,3.48-.819,1.331-1.587,2.713-2.3,4.095-.665,1.382-1.382,2.815-2,4.248a5.645,5.645,0,0,1-.972,1.28,2.1,2.1,0,0,1-1.433.563.658.658,0,0,1-.768-.307" transform="translate(-117.993 -13.767)"/></g></svg>