<svg xmlns="http://www.w3.org/2000/svg" width="281.209" height="78.281" viewBox="0 0 281.209 78.281"><defs><style>.a{fill:#ffcd00;}.b{fill:#d9c79e;}.c{fill:#0082ca;}.d{fill:#0082be;}</style></defs><g transform="translate(-5.7 -10.1)"><path class="a" d="M92.614,54.56a43.457,43.457,0,0,0-86.914,0,6.627,6.627,0,0,0,1.261-.388h0A126.869,126.869,0,0,0,26.749,42.629c5.723-4.171,10.67-5.917,14.841-6.111h0a26.39,26.39,0,0,1,9.894,1.358,16.774,16.774,0,0,0-6.4,4.171h0a4.656,4.656,0,0,0,.194,6.693A4.438,4.438,0,0,0,49.545,49.9l.873-.291.485-.194c3.977-1.746,10.088-6.4,20.273-6.4h0c9.409.1,17.557,4.753,21.34,11.543h0l-.1-.194Z" transform="translate(0 -0.033)"/><path class="b" d="M82.777,55.3c-6.984-4.268-13.386-3.492-18.236-1.94a10.513,10.513,0,0,0-1.843.776h.1c-6.208,2.91-9.7,9.409-14.55,13.871l-.1.1-.582.388-.194.194-.388.388-.194.194-.485.194-.291.194-.388.291-.291.194a2.029,2.029,0,0,0-.582.388l-.194.1-.582.291-.194.1a1.579,1.579,0,0,0-.582.291c1.261-.582,12.028-5.141,15.035-6.5,3.2-1.455,9.021-4.753,16.1-4.753s15.52,3.783,18.236,6.5a25.553,25.553,0,0,0-9.8-11.252" transform="translate(-1.124 -1.26)"/><path class="c" d="M43.685,70.354c6.887-3.88,10.476-12.8,18.042-16.393a17.792,17.792,0,0,0-2.522,1.261c-.388.194-11.349,6.014-18.43,5.82h0c-3.686-.194-6.111-2.328-6.4-5.723a6.1,6.1,0,0,1,1.164-4.074,16.962,16.962,0,0,1,4.753-4.559c-2.716-1.843-7.663,2.328-9.6,3.783-.776.582-10.961,7.275-14.453,9.118-4.171,2.134-7.275,3.3-8.633,3.88A19.077,19.077,0,0,0,23.411,74.816c.388,0,.873.1,1.358.1h.582a38.8,38.8,0,0,0,13.386-2.425c.97-.291,2.231-.776,3.783-1.358-.485,0,.194-.291,1.164-.776" transform="translate(-0.057 -1.083)"/><path class="d" d="M107.377,87.568l1.455,2.91h-1.261l-1.455-2.813h-1.649v2.813H103.4V83.3h3.1a2.088,2.088,0,0,1,2.328,2.134,1.875,1.875,0,0,1-1.455,2.134m-.776-3.3h-2.134V86.6H106.6a1.168,1.168,0,1,0,0-2.328" transform="translate(-2.929 -2.195)"/><path class="d" d="M114.656,88.2h-3.589c.1,1.067.679,1.455,1.358,1.455a2.376,2.376,0,0,0,1.164-.388l.582.679a2.415,2.415,0,0,1-1.843.679c-1.261,0-2.328-.97-2.328-2.813S110.97,85,112.328,85c1.552,0,2.231,1.261,2.231,2.716a1.055,1.055,0,0,1,.1.485m-2.328-2.231c-.679,0-1.164.485-1.261,1.358h2.522a1.2,1.2,0,0,0-1.261-1.358" transform="translate(-3.127 -2.246)"/><path class="d" d="M117.637,90.632a3.417,3.417,0,0,1-2.037-.679l.485-.776a2.58,2.58,0,0,0,1.552.582c.679,0,.97-.194.97-.582s-.485-.582-1.261-.873c-1.164-.485-1.552-.873-1.552-1.649,0-.97.776-1.455,1.843-1.455a3.765,3.765,0,0,1,1.843.582l-.485.776a2.574,2.574,0,0,0-1.358-.485c-.485,0-.776.194-.776.485s.194.485.97.776c1.164.485,1.843.776,1.843,1.843s-.97,1.455-2.037,1.455" transform="translate(-3.295 -2.252)"/><path class="d" d="M121.679,84.358a.679.679,0,1,1,.679-.679.663.663,0,0,1-.679.679m-.485.776h1.067v5.335h-1.067Z" transform="translate(-3.457 -2.186)"/><path class="d" d="M127,90.466v-.485a1.915,1.915,0,0,1-1.358.582c-1.164,0-2.037-.873-2.037-2.91,0-1.843.97-2.716,2.134-2.716a1.965,1.965,0,0,1,1.358.582V83.482l1.067-.582v7.469H127Zm.1-3.783A1.8,1.8,0,0,0,125.831,86q-1.164,0-1.164,1.746c0,1.358.388,1.94,1.164,1.94a2.028,2.028,0,0,0,1.261-.679Z" transform="translate(-3.535 -2.183)"/><path class="d" d="M134.056,88.2h-3.589c.1,1.067.679,1.455,1.358,1.455a2.376,2.376,0,0,0,1.164-.388l.582.679a2.415,2.415,0,0,1-1.843.679c-1.261,0-2.328-.97-2.328-2.813S130.37,85,131.728,85c1.552,0,2.231,1.261,2.231,2.716a1.055,1.055,0,0,1,.1.485m-2.328-2.231c-.679,0-1.164.485-1.261,1.358h2.522a1.2,1.2,0,0,0-1.261-1.358" transform="translate(-3.709 -2.246)"/><path class="d" d="M138.7,90.532V87.525c0-1.067-.388-1.455-1.067-1.455s-1.067.485-1.067,1.358v3.1H135.5V85.2h1.067v.485a1.628,1.628,0,0,1,1.358-.582c1.261,0,1.94.776,1.94,2.425v3.1H138.7Z" transform="translate(-3.891 -2.249)"/><path class="d" d="M144.786,86.646a1.834,1.834,0,0,0-1.358-.679c-.776,0-1.261.679-1.261,1.746s.485,1.843,1.261,1.843c.485,0,.776-.194,1.261-.679l.679.679a2.141,2.141,0,0,1-1.94.97c-1.358,0-2.328-1.067-2.328-2.813s1.067-2.813,2.328-2.813a2.585,2.585,0,0,1,1.94.873Z" transform="translate(-4.059 -2.243)"/><path class="d" d="M150.956,88.2h-3.589c.1,1.067.679,1.455,1.358,1.455a2.376,2.376,0,0,0,1.164-.388l.582.679a2.415,2.415,0,0,1-1.843.679c-1.261,0-2.328-.97-2.328-2.813S147.27,85,148.628,85c1.552,0,2.231,1.261,2.231,2.716a1.055,1.055,0,0,1,.1.485m-2.328-2.231c-.679,0-1.164.485-1.261,1.358h2.522a1.2,1.2,0,0,0-1.261-1.358" transform="translate(-4.215 -2.246)"/><path class="d" d="M154.037,90.632A3.658,3.658,0,0,1,152,89.953l.485-.776a2.58,2.58,0,0,0,1.552.582c.679,0,.97-.194.97-.582s-.485-.582-1.261-.873c-1.164-.485-1.552-.873-1.552-1.649,0-.97.776-1.455,1.843-1.455a3.765,3.765,0,0,1,1.843.582l-.485.776a2.574,2.574,0,0,0-1.358-.485c-.485,0-.776.194-.776.485s.194.485.97.776c1.164.485,1.843.776,1.843,1.843-.1,1.067-.97,1.455-2.037,1.455" transform="translate(-4.386 -2.252)"/><path class="d" d="M163.3,90.529v-.582a2.063,2.063,0,0,1-1.455.679A1.722,1.722,0,0,1,160,88.783c0-1.164.97-1.746,2.134-1.746a3.618,3.618,0,0,1,1.164.194v-.388c0-.582-.388-.873-.97-.873a2.817,2.817,0,0,0-1.358.291l-.388-.776A3.451,3.451,0,0,1,162.425,85a1.788,1.788,0,0,1,2.037,1.843v3.686Zm0-2.328a3.8,3.8,0,0,0-1.261-.194c-.679,0-1.067.291-1.067.776,0,.582.291.873,1.067.873a1.62,1.62,0,0,0,1.261-.679Z" transform="translate(-4.626 -2.246)"/><path class="d" d="M169.2,90.532V87.525c0-1.067-.388-1.455-1.067-1.455s-1.067.485-1.067,1.358v3.1H166V85.2h1.067v.485a1.628,1.628,0,0,1,1.358-.582c1.261,0,1.94.776,1.94,2.425v3.1H169.2Z" transform="translate(-4.806 -2.249)"/><path class="d" d="M175.1,90.466v-.485a1.915,1.915,0,0,1-1.358.582c-1.164,0-2.037-.873-2.037-2.91,0-1.843.97-2.716,2.134-2.716a1.965,1.965,0,0,1,1.358.582V83.482l1.067-.582v7.469H175.1Zm0-3.783A1.62,1.62,0,0,0,173.834,86q-1.164,0-1.164,1.746c0,1.358.388,1.94,1.164,1.94a2.028,2.028,0,0,0,1.261-.679Z" transform="translate(-4.977 -2.183)"/><path class="d" d="M183.513,90.478H180.7V83.3h2.91a1.79,1.79,0,0,1,2.037,1.843,1.673,1.673,0,0,1-.873,1.455,1.63,1.63,0,0,1,1.164,1.649c0,1.455-.873,2.231-2.425,2.231m.1-6.208h-1.94v1.843h1.94a.893.893,0,0,0,.97-.873.87.87,0,0,0-.97-.97m0,2.813h-1.94v2.425h1.94c.97,0,1.261-.485,1.261-1.164a1.172,1.172,0,0,0-1.261-1.261" transform="translate(-5.247 -2.195)"/><path class="d" d="M191.756,88.2h-3.589c.1,1.067.679,1.455,1.358,1.455a2.376,2.376,0,0,0,1.164-.388l.582.679a2.415,2.415,0,0,1-1.843.679c-1.261,0-2.328-.97-2.328-2.813S188.07,85,189.428,85c1.552,0,2.231,1.261,2.231,2.716a1.055,1.055,0,0,1,.1.485m-2.328-2.231c-.679,0-1.164.485-1.261,1.358h2.522c-.1-.776-.388-1.358-1.261-1.358" transform="translate(-5.438 -2.246)"/><path class="d" d="M196.2,90.529v-.582a2.063,2.063,0,0,1-1.455.679,1.722,1.722,0,0,1-1.843-1.843c0-1.164.97-1.746,2.134-1.746a3.618,3.618,0,0,1,1.164.194v-.388c0-.582-.388-.873-.97-.873a2.817,2.817,0,0,0-1.358.291l-.388-.776A3.451,3.451,0,0,1,195.325,85a1.788,1.788,0,0,1,2.037,1.843v3.686Zm0-2.328a3.8,3.8,0,0,0-1.261-.194c-.679,0-1.067.291-1.067.776,0,.582.291.873,1.067.873a1.62,1.62,0,0,0,1.261-.679Z" transform="translate(-5.612 -2.246)"/><path class="d" d="M202.186,86.646a1.834,1.834,0,0,0-1.358-.679c-.776,0-1.261.679-1.261,1.746s.485,1.843,1.261,1.843c.485,0,.776-.194,1.261-.679l.679.679a2.141,2.141,0,0,1-1.94.97c-1.358,0-2.328-1.067-2.328-2.813s1.067-2.813,2.328-2.813a2.585,2.585,0,0,1,1.94.873Z" transform="translate(-5.78 -2.243)"/><path class="d" d="M207.5,90.469V87.462c0-1.067-.388-1.455-1.067-1.455s-1.067.485-1.067,1.358v3.1H204.3V83.582L205.367,83v2.619a1.628,1.628,0,0,1,1.358-.582c1.261,0,1.94.776,1.94,2.425v3.1H207.5Z" transform="translate(-5.954 -2.186)"/><path class="d" d="M215.707,90.572c-1.843,0-3.007-1.552-3.007-3.686s1.164-3.686,3.007-3.686a2.556,2.556,0,0,1,2.425,1.358l-.97.582a1.6,1.6,0,0,0-1.455-.873c-1.261,0-1.94.97-1.94,2.619s.679,2.619,1.94,2.619a1.646,1.646,0,0,0,1.552-.873l.873.582a2.657,2.657,0,0,1-2.425,1.358" transform="translate(-6.206 -2.192)"/><path class="d" d="M219.7,90.469V83.582L220.767,83v7.469Z" transform="translate(-6.416 -2.186)"/><path class="d" d="M225.6,90.532v-.485a1.628,1.628,0,0,1-1.358.582c-1.261,0-1.94-.776-1.94-2.425V85.1h1.067v3.007c0,1.067.388,1.455,1.067,1.455s1.067-.485,1.067-1.358V85.1h1.067v5.335h-.97Z" transform="translate(-6.494 -2.249)"/><path class="d" d="M230.725,90.566a1.965,1.965,0,0,1-1.358-.582v.485H228.3V83.582L229.367,83v2.619a1.915,1.915,0,0,1,1.358-.582c1.164,0,2.037.873,2.037,2.91.1,1.746-.97,2.619-2.037,2.619m-.194-4.656a2.028,2.028,0,0,0-1.261.679V88.82a1.8,1.8,0,0,0,1.261.679q1.164,0,1.164-1.746c.1-1.164-.388-1.843-1.164-1.843" transform="translate(-6.674 -2.186)"/><path class="c" d="M115.364,39.222h4.268V39.9H104.5v-.679h3.783V11.479H104.5V10.8h12.9c2.91,0,5.044.1,6.4.194a11.384,11.384,0,0,1,3.2.679,9,9,0,0,1,3.977,2.716,6.759,6.759,0,0,1,1.261,4.268,6.651,6.651,0,0,1-3.3,6.111c-2.231,1.358-5.529,2.037-9.991,2.037h-3.589V39.222Zm0-13.1h2.619c2.716,0,4.559-.485,5.529-1.552s1.455-3.007,1.455-5.82-.485-4.85-1.455-5.82c-.97-1.067-2.813-1.552-5.529-1.552h-2.619Z" transform="translate(-2.962 -0.021)"/><path class="d" d="M134.7,39.9v-.679h3.783V11.479H134.7V10.8h14.744v.679h-3.88v27.84h4.559c3.589,0,6.305-.776,8.051-2.231s2.619-3.783,2.619-6.887h.679v9.7Z" transform="translate(-3.867 -0.021)"/><path class="d" d="M169.857,30.567l-1.94,4.753a4.8,4.8,0,0,0-.388,1.261,4.351,4.351,0,0,0-.1,1.067,1.132,1.132,0,0,0,.679,1.067,10.9,10.9,0,0,0,2.425.582v.679H162V39.3a5.61,5.61,0,0,0,3.1-.97,9.083,9.083,0,0,0,2.037-3.492l9.7-24.735h.582l12.319,29.2h3.007v.679H178.393V39.3h3.686l-3.4-8.633h-8.827Zm.194-.679H178.3l-4.171-10.573Z" transform="translate(-4.686 0)"/><path class="d" d="M190.886,11.479H187.2V10.8h14.55v.679h-3.2L206.115,27.1l5.238-10.961.1-.194a7.523,7.523,0,0,0,.97-2.91,1.176,1.176,0,0,0-.679-1.164,4.186,4.186,0,0,0-2.134-.388h-.485V10.8h8.536v.679a6.534,6.534,0,0,0-2.716.679A5.465,5.465,0,0,0,213.1,14.68l-6.208,12.9V39.319h3.783V40H195.93v-.679h3.783v-9.6Z" transform="translate(-5.441 -0.021)"/><path class="d" d="M219.954,30.567l-1.94,4.753a4.8,4.8,0,0,0-.388,1.261,4.351,4.351,0,0,0-.1,1.067,1.132,1.132,0,0,0,.679,1.067,10.9,10.9,0,0,0,2.425.582v.679H212V39.3a5.61,5.61,0,0,0,3.1-.97,9.084,9.084,0,0,0,2.037-3.492l9.7-24.735h.582l12.319,29.2h3.007v.679H228.393V39.3h3.686l-3.4-8.633h-8.73Zm.194-.679h8.245l-4.171-10.573Z" transform="translate(-6.185 0)"/><path class="d" d="M103.5,76.4v-.679h3.589V47.879H103.5V47.2h15.132c5.432,0,9.7,1.261,12.61,3.783s4.365,6.111,4.365,10.767S134.153,70,131.146,72.518c-2.91,2.522-7.178,3.783-12.61,3.783H103.5Zm10.67-.679h3.783q5.675,0,7.857-2.91c1.455-1.94,2.134-5.626,2.134-10.961,0-5.432-.679-9.021-2.134-10.961s-4.074-2.91-7.857-2.91H114.17Z" transform="translate(-2.932 -1.112)"/><path class="d" d="M139.6,61.829a16.619,16.619,0,0,1,1.067-6.014,14.6,14.6,0,0,1,3.4-4.947,14.322,14.322,0,0,1,4.656-3.2,15.366,15.366,0,0,1,11.252,0,13.8,13.8,0,0,1,4.656,3.2,14.263,14.263,0,0,1,3.3,4.947,17.482,17.482,0,0,1,0,12.028,15.766,15.766,0,0,1-3.3,4.947,12.543,12.543,0,0,1-4.656,3.2,15.366,15.366,0,0,1-11.252,0,12.543,12.543,0,0,1-4.656-3.2,16.13,16.13,0,0,1-3.4-4.947,16.619,16.619,0,0,1-1.067-6.014m7.76,0c0,5.917.485,9.8,1.552,11.737.97,1.94,2.813,2.813,5.529,2.813,2.619,0,4.462-.97,5.432-2.813s1.552-5.82,1.552-11.737-.485-9.894-1.552-11.737c-.97-1.843-2.813-2.813-5.432-2.813s-4.462.97-5.529,2.813c-1.067,1.94-1.552,5.82-1.552,11.737" transform="translate(-4.014 -1.094)"/><path class="d" d="M182.964,75.719h4.268V76.4H172.1v-.679h3.783V47.879H172.1V47.2h14.744q6.111,0,9.312,1.746a5.453,5.453,0,0,1,3.2,5.044,5.242,5.242,0,0,1-2.328,4.559c-1.552,1.067-3.977,1.843-7.372,2.328v.194q4.511.291,6.693,2.328a7.679,7.679,0,0,1,2.425,5.723c0,.388.1.97.1,1.746.194,3.1.97,4.753,2.522,4.753a1.894,1.894,0,0,0,.679-.1,9.164,9.164,0,0,1,.873-.291l.291.485a12.676,12.676,0,0,1-2.619,1.164,8.968,8.968,0,0,1-2.813.388,7.406,7.406,0,0,1-2.619-.485,7.768,7.768,0,0,1-2.037-1.455c-.873-1.067-1.358-2.91-1.455-5.723a9.43,9.43,0,0,0-.1-1.746c-.194-2.425-.776-4.074-1.843-4.947s-2.91-1.358-5.529-1.358h-1.261Zm0-15.035h2.619c2.231,0,3.88-.485,4.85-1.552,1.067-1.067,1.552-2.716,1.552-5.044s-.485-3.977-1.455-4.85-2.716-1.358-5.238-1.358h-2.231v12.8Z" transform="translate(-4.989 -1.112)"/><path class="d" d="M210.057,67.067l-1.94,4.753a4.8,4.8,0,0,0-.388,1.261,4.349,4.349,0,0,0-.1,1.067,1.132,1.132,0,0,0,.679,1.067,10.9,10.9,0,0,0,2.425.582v.679H202.2V75.8a5.61,5.61,0,0,0,3.1-.97,9.083,9.083,0,0,0,2.037-3.492l9.7-24.736h.582l12.319,29.2h3.007v.679H218.5V75.8h3.686l-3.4-8.73Zm.194-.679H218.5l-4.171-10.67Z" transform="translate(-5.891 -1.094)"/><path class="d" d="M232.4,76.4v-.679h3.589V47.879H232.4V47.2h15.132c5.432,0,9.7,1.261,12.61,3.783s4.365,6.111,4.365,10.767S263.053,70,260.046,72.518c-2.91,2.522-7.178,3.783-12.61,3.783H232.4Zm10.67-.679h3.783q5.675,0,7.857-2.91c1.455-1.94,2.134-5.626,2.134-10.961,0-5.432-.679-9.021-2.134-10.961s-4.074-2.91-7.857-2.91H243.07Z" transform="translate(-6.797 -1.112)"/><path class="d" d="M271.757,67.067l-1.94,4.753a4.805,4.805,0,0,0-.388,1.261,4.351,4.351,0,0,0-.1,1.067,1.132,1.132,0,0,0,.679,1.067,10.9,10.9,0,0,0,2.425.582v.679H263.9V75.8a5.61,5.61,0,0,0,3.1-.97,9.084,9.084,0,0,0,2.037-3.492l9.7-24.736h.582l12.319,29.2h3.007v.679H280.293V75.8h3.686l-3.4-8.73Zm.194-.679H280.2l-4.171-10.67Z" transform="translate(-7.741 -1.094)"/></g></svg>